<mxfile host="app.diagrams.net" agent="Mozilla/5.0 (Macintosh; Intel Mac OS X 10_15_7) AppleWebKit/537.36 (KHTML, like Gecko) Chrome/135.0.0.0 Safari/537.36" version="27.0.3">
  <diagram id="C5RBs43oDa-KdzZeNtuy" name="Page-1">
    <mxGraphModel dx="2677" dy="1220" grid="1" gridSize="10" guides="1" tooltips="1" connect="1" arrows="1" fold="1" page="1" pageScale="1" pageWidth="827" pageHeight="1169" math="0" shadow="0">
      <root>
        <mxCell id="WIyWlLk6GJQsqaUBKTNV-0" />
        <mxCell id="WIyWlLk6GJQsqaUBKTNV-1" parent="WIyWlLk6GJQsqaUBKTNV-0" />
        <mxCell id="LFCNQOA-7yHvIdZD4JI9-0" value="FarmDatabase" style="swimlane;fontStyle=1;align=center;verticalAlign=top;childLayout=stackLayout;horizontal=1;startSize=26;horizontalStack=0;resizeParent=1;resizeParentMax=0;resizeLast=0;collapsible=1;marginBottom=0;whiteSpace=wrap;html=1;" parent="WIyWlLk6GJQsqaUBKTNV-1" vertex="1">
          <mxGeometry x="-630" y="1230" width="310" height="170" as="geometry" />
        </mxCell>
        <mxCell id="LFCNQOA-7yHvIdZD4JI9-1" value="-instance: FarmDatabase (static)&lt;div&gt;-cattleLocationData: Map&amp;lt;String, Integer&amp;gt;&lt;/div&gt;&lt;div&gt;&lt;br&gt;&lt;/div&gt;" style="text;strokeColor=none;fillColor=none;align=left;verticalAlign=top;spacingLeft=4;spacingRight=4;overflow=hidden;rotatable=0;points=[[0,0.5],[1,0.5]];portConstraint=eastwest;whiteSpace=wrap;html=1;" parent="LFCNQOA-7yHvIdZD4JI9-0" vertex="1">
          <mxGeometry y="26" width="310" height="54" as="geometry" />
        </mxCell>
        <mxCell id="LFCNQOA-7yHvIdZD4JI9-2" value="" style="line;strokeWidth=1;fillColor=none;align=left;verticalAlign=middle;spacingTop=-1;spacingLeft=3;spacingRight=3;rotatable=0;labelPosition=right;points=[];portConstraint=eastwest;strokeColor=inherit;" parent="LFCNQOA-7yHvIdZD4JI9-0" vertex="1">
          <mxGeometry y="80" width="310" height="8" as="geometry" />
        </mxCell>
        <mxCell id="LFCNQOA-7yHvIdZD4JI9-3" value="-FarmDatabase()&lt;div&gt;+getInstance(): FarmDatabase&lt;/div&gt;&lt;div&gt;+updateLocation(cattleId: String, location: Integer): void&lt;/div&gt;&lt;div&gt;+getLocation(cattleId: String): Integer&lt;/div&gt;" style="text;strokeColor=none;fillColor=none;align=left;verticalAlign=top;spacingLeft=4;spacingRight=4;overflow=hidden;rotatable=0;points=[[0,0.5],[1,0.5]];portConstraint=eastwest;whiteSpace=wrap;html=1;" parent="LFCNQOA-7yHvIdZD4JI9-0" vertex="1">
          <mxGeometry y="88" width="310" height="82" as="geometry" />
        </mxCell>
        <mxCell id="LFCNQOA-7yHvIdZD4JI9-32" style="edgeStyle=orthogonalEdgeStyle;rounded=0;orthogonalLoop=1;jettySize=auto;html=1;endArrow=block;endFill=0;" parent="WIyWlLk6GJQsqaUBKTNV-1" source="LFCNQOA-7yHvIdZD4JI9-14" edge="1" target="LFCNQOA-7yHvIdZD4JI9-34">
          <mxGeometry relative="1" as="geometry">
            <mxPoint x="153" y="1396" as="targetPoint" />
            <Array as="points">
              <mxPoint x="180" y="1640" />
              <mxPoint x="180" y="1640" />
            </Array>
          </mxGeometry>
        </mxCell>
        <mxCell id="LFCNQOA-7yHvIdZD4JI9-14" value="Farmer&lt;div&gt;&lt;br&gt;&lt;/div&gt;" style="swimlane;fontStyle=1;align=center;verticalAlign=top;childLayout=stackLayout;horizontal=1;startSize=26;horizontalStack=0;resizeParent=1;resizeParentMax=0;resizeLast=0;collapsible=1;marginBottom=0;whiteSpace=wrap;html=1;" parent="WIyWlLk6GJQsqaUBKTNV-1" vertex="1">
          <mxGeometry x="80" y="1420" width="210" height="100" as="geometry" />
        </mxCell>
        <mxCell id="LFCNQOA-7yHvIdZD4JI9-15" value="-name: String" style="text;strokeColor=none;fillColor=none;align=left;verticalAlign=top;spacingLeft=4;spacingRight=4;overflow=hidden;rotatable=0;points=[[0,0.5],[1,0.5]];portConstraint=eastwest;whiteSpace=wrap;html=1;" parent="LFCNQOA-7yHvIdZD4JI9-14" vertex="1">
          <mxGeometry y="26" width="210" height="26" as="geometry" />
        </mxCell>
        <mxCell id="LFCNQOA-7yHvIdZD4JI9-16" value="" style="line;strokeWidth=1;fillColor=none;align=left;verticalAlign=middle;spacingTop=-1;spacingLeft=3;spacingRight=3;rotatable=0;labelPosition=right;points=[];portConstraint=eastwest;strokeColor=inherit;" parent="LFCNQOA-7yHvIdZD4JI9-14" vertex="1">
          <mxGeometry y="52" width="210" height="8" as="geometry" />
        </mxCell>
        <mxCell id="LFCNQOA-7yHvIdZD4JI9-17" value="+update(cattleId: String, location: Integer): void" style="text;strokeColor=none;fillColor=none;align=left;verticalAlign=top;spacingLeft=4;spacingRight=4;overflow=hidden;rotatable=0;points=[[0,0.5],[1,0.5]];portConstraint=eastwest;whiteSpace=wrap;html=1;" parent="LFCNQOA-7yHvIdZD4JI9-14" vertex="1">
          <mxGeometry y="60" width="210" height="40" as="geometry" />
        </mxCell>
        <mxCell id="LFCNQOA-7yHvIdZD4JI9-31" style="edgeStyle=orthogonalEdgeStyle;rounded=0;orthogonalLoop=1;jettySize=auto;html=1;endArrow=block;endFill=0;" parent="WIyWlLk6GJQsqaUBKTNV-1" source="LFCNQOA-7yHvIdZD4JI9-26" target="LFCNQOA-7yHvIdZD4JI9-33" edge="1">
          <mxGeometry relative="1" as="geometry">
            <mxPoint x="-39.5" y="1396" as="targetPoint" />
            <Array as="points">
              <mxPoint x="-197" y="1616" />
              <mxPoint x="-112" y="1616" />
            </Array>
          </mxGeometry>
        </mxCell>
        <mxCell id="LFCNQOA-7yHvIdZD4JI9-26" value="&lt;div&gt;LocationTracker&amp;nbsp;&lt;/div&gt;" style="swimlane;fontStyle=1;align=center;verticalAlign=top;childLayout=stackLayout;horizontal=1;startSize=26;horizontalStack=0;resizeParent=1;resizeParentMax=0;resizeLast=0;collapsible=1;marginBottom=0;whiteSpace=wrap;html=1;" parent="WIyWlLk6GJQsqaUBKTNV-1" vertex="1">
          <mxGeometry x="-290" y="1420" width="210" height="260" as="geometry">
            <mxRectangle x="50" y="470" width="130" height="30" as="alternateBounds" />
          </mxGeometry>
        </mxCell>
        <mxCell id="LFCNQOA-7yHvIdZD4JI9-27" value="-observers: List&amp;lt;Observer&amp;gt;" style="text;strokeColor=none;fillColor=none;align=left;verticalAlign=top;spacingLeft=4;spacingRight=4;overflow=hidden;rotatable=0;points=[[0,0.5],[1,0.5]];portConstraint=eastwest;whiteSpace=wrap;html=1;" parent="LFCNQOA-7yHvIdZD4JI9-26" vertex="1">
          <mxGeometry y="26" width="210" height="26" as="geometry" />
        </mxCell>
        <mxCell id="LFCNQOA-7yHvIdZD4JI9-28" value="" style="line;strokeWidth=1;fillColor=none;align=left;verticalAlign=middle;spacingTop=-1;spacingLeft=3;spacingRight=3;rotatable=0;labelPosition=right;points=[];portConstraint=eastwest;strokeColor=inherit;" parent="LFCNQOA-7yHvIdZD4JI9-26" vertex="1">
          <mxGeometry y="52" width="210" height="8" as="geometry" />
        </mxCell>
        <mxCell id="LFCNQOA-7yHvIdZD4JI9-29" value="+registerObserver(observer: Observer): void&lt;div&gt;+removeObserver(observer: Observer): void&lt;/div&gt;&lt;div&gt;+notifyObservers(cattleId: String, location: Integer): void&lt;/div&gt;&lt;div&gt;+checkLocation(cattleId: String, location: Integer): void&lt;br&gt;&lt;div&gt;&lt;br&gt;&lt;/div&gt;&lt;/div&gt;" style="text;strokeColor=none;fillColor=none;align=left;verticalAlign=top;spacingLeft=4;spacingRight=4;overflow=hidden;rotatable=0;points=[[0,0.5],[1,0.5]];portConstraint=eastwest;whiteSpace=wrap;html=1;" parent="LFCNQOA-7yHvIdZD4JI9-26" vertex="1">
          <mxGeometry y="60" width="210" height="200" as="geometry" />
        </mxCell>
        <mxCell id="LFCNQOA-7yHvIdZD4JI9-30" style="edgeStyle=orthogonalEdgeStyle;rounded=0;orthogonalLoop=1;jettySize=auto;html=1;" parent="WIyWlLk6GJQsqaUBKTNV-1" source="LFCNQOA-7yHvIdZD4JI9-14" target="LFCNQOA-7yHvIdZD4JI9-26" edge="1">
          <mxGeometry relative="1" as="geometry">
            <Array as="points">
              <mxPoint x="80" y="1460" />
              <mxPoint x="80" y="1460" />
            </Array>
          </mxGeometry>
        </mxCell>
        <mxCell id="LFCNQOA-7yHvIdZD4JI9-33" value="&lt;p style=&quot;margin:0px;margin-top:4px;text-align:center;&quot;&gt;&lt;i&gt;&amp;lt;&amp;lt;Interface&amp;gt;&amp;gt;&lt;/i&gt;&lt;br&gt;&lt;b&gt;Subject&lt;/b&gt;&lt;/p&gt;&lt;p style=&quot;margin:0px;margin-left:4px;&quot;&gt;&lt;br&gt;&lt;/p&gt;&lt;hr size=&quot;1&quot; style=&quot;border-style:solid;&quot;&gt;&lt;p style=&quot;margin:0px;margin-left:4px;&quot;&gt;+registerObserver(observer: Observer): void&lt;br&gt;+removeObserver(observer: Observer): void&lt;/p&gt;&lt;p style=&quot;margin:0px;margin-left:4px;&quot;&gt;+notifyObservers(cattleId: String, location: Integer): void&lt;/p&gt;" style="verticalAlign=top;align=left;overflow=fill;html=1;whiteSpace=wrap;" parent="WIyWlLk6GJQsqaUBKTNV-1" vertex="1">
          <mxGeometry x="-270" y="1766" width="170" height="160" as="geometry" />
        </mxCell>
        <mxCell id="LFCNQOA-7yHvIdZD4JI9-36" style="edgeStyle=orthogonalEdgeStyle;rounded=0;orthogonalLoop=1;jettySize=auto;html=1;entryX=1;entryY=0.5;entryDx=0;entryDy=0;endArrow=diamond;endFill=0;fontSize=11;" parent="WIyWlLk6GJQsqaUBKTNV-1" source="LFCNQOA-7yHvIdZD4JI9-34" target="LFCNQOA-7yHvIdZD4JI9-33" edge="1">
          <mxGeometry relative="1" as="geometry" />
        </mxCell>
        <mxCell id="LFCNQOA-7yHvIdZD4JI9-34" value="&lt;p style=&quot;margin:0px;margin-top:4px;text-align:center;&quot;&gt;&lt;i&gt;&amp;lt;&amp;lt;Interface&amp;gt;&amp;gt;&lt;/i&gt;&lt;br&gt;&lt;b&gt;Observer&lt;/b&gt;&lt;/p&gt;&lt;p style=&quot;margin:0px;margin-left:4px;&quot;&gt;&lt;br&gt;&lt;/p&gt;&lt;hr size=&quot;1&quot; style=&quot;border-style:solid;&quot;&gt;&lt;p style=&quot;margin:0px;margin-left:4px;&quot;&gt;+update(cattleId: String, location: Integer): void&lt;/p&gt;" style="verticalAlign=top;align=left;overflow=fill;html=1;whiteSpace=wrap;" parent="WIyWlLk6GJQsqaUBKTNV-1" vertex="1">
          <mxGeometry x="90" y="1766" width="170" height="160" as="geometry" />
        </mxCell>
        <mxCell id="LFCNQOA-7yHvIdZD4JI9-37" value="&lt;p style=&quot;margin:0px;margin-top:4px;text-align:center;&quot;&gt;&lt;i&gt;&amp;lt;&amp;lt;Interface&amp;gt;&amp;gt;&lt;/i&gt;&lt;/p&gt;&lt;p style=&quot;margin:0px;margin-top:4px;text-align:center;&quot;&gt;&lt;i&gt;&lt;b&gt;Command&lt;/b&gt;&lt;/i&gt;&lt;/p&gt;&lt;hr size=&quot;1&quot; style=&quot;border-style:solid;&quot;&gt;&lt;p style=&quot;margin:0px;margin-left:4px;&quot;&gt;+execute(cattle: Cattle): void&lt;/p&gt;" style="verticalAlign=top;align=left;overflow=fill;html=1;whiteSpace=wrap;" parent="WIyWlLk6GJQsqaUBKTNV-1" vertex="1">
          <mxGeometry x="-520" y="830" width="190" height="70" as="geometry" />
        </mxCell>
        <mxCell id="LFCNQOA-7yHvIdZD4JI9-53" style="edgeStyle=orthogonalEdgeStyle;rounded=0;orthogonalLoop=1;jettySize=auto;html=1;endArrow=block;endFill=0;" parent="WIyWlLk6GJQsqaUBKTNV-1" source="LFCNQOA-7yHvIdZD4JI9-38" target="LFCNQOA-7yHvIdZD4JI9-37" edge="1">
          <mxGeometry relative="1" as="geometry">
            <Array as="points">
              <mxPoint x="-508" y="760" />
              <mxPoint x="-470" y="760" />
            </Array>
          </mxGeometry>
        </mxCell>
        <mxCell id="LFCNQOA-7yHvIdZD4JI9-38" value="VaccinationCommand " style="swimlane;fontStyle=0;childLayout=stackLayout;horizontal=1;startSize=26;fillColor=none;horizontalStack=0;resizeParent=1;resizeParentMax=0;resizeLast=0;collapsible=1;marginBottom=0;whiteSpace=wrap;html=1;" parent="WIyWlLk6GJQsqaUBKTNV-1" vertex="1">
          <mxGeometry x="-603" y="570" width="190" height="60" as="geometry" />
        </mxCell>
        <mxCell id="LFCNQOA-7yHvIdZD4JI9-39" value="+execute(cattle: Cattle): void" style="text;strokeColor=none;fillColor=none;align=left;verticalAlign=top;spacingLeft=4;spacingRight=4;overflow=hidden;rotatable=0;points=[[0,0.5],[1,0.5]];portConstraint=eastwest;whiteSpace=wrap;html=1;" parent="LFCNQOA-7yHvIdZD4JI9-38" vertex="1">
          <mxGeometry y="26" width="190" height="34" as="geometry" />
        </mxCell>
        <mxCell id="LFCNQOA-7yHvIdZD4JI9-43" value="InspectionCommand " style="swimlane;fontStyle=0;childLayout=stackLayout;horizontal=1;startSize=26;fillColor=none;horizontalStack=0;resizeParent=1;resizeParentMax=0;resizeLast=0;collapsible=1;marginBottom=0;whiteSpace=wrap;html=1;" parent="WIyWlLk6GJQsqaUBKTNV-1" vertex="1">
          <mxGeometry x="-440" y="660" width="170" height="52" as="geometry" />
        </mxCell>
        <mxCell id="LFCNQOA-7yHvIdZD4JI9-44" value="+execute(cattle: Cattle): void" style="text;strokeColor=none;fillColor=none;align=left;verticalAlign=top;spacingLeft=4;spacingRight=4;overflow=hidden;rotatable=0;points=[[0,0.5],[1,0.5]];portConstraint=eastwest;whiteSpace=wrap;html=1;" parent="LFCNQOA-7yHvIdZD4JI9-43" vertex="1">
          <mxGeometry y="26" width="170" height="26" as="geometry" />
        </mxCell>
        <mxCell id="LFCNQOA-7yHvIdZD4JI9-47" value="OperationScheduler " style="swimlane;fontStyle=0;childLayout=stackLayout;horizontal=1;startSize=26;fillColor=none;horizontalStack=0;resizeParent=1;resizeParentMax=0;resizeLast=0;collapsible=1;marginBottom=0;whiteSpace=wrap;html=1;" parent="WIyWlLk6GJQsqaUBKTNV-1" vertex="1">
          <mxGeometry x="-520" y="960" width="190" height="70" as="geometry" />
        </mxCell>
        <mxCell id="LFCNQOA-7yHvIdZD4JI9-48" value="+scheduleOperation(command: Command, cattle: Cattle): void" style="text;strokeColor=none;fillColor=none;align=left;verticalAlign=top;spacingLeft=4;spacingRight=4;overflow=hidden;rotatable=0;points=[[0,0.5],[1,0.5]];portConstraint=eastwest;whiteSpace=wrap;html=1;" parent="LFCNQOA-7yHvIdZD4JI9-47" vertex="1">
          <mxGeometry y="26" width="190" height="44" as="geometry" />
        </mxCell>
        <mxCell id="LFCNQOA-7yHvIdZD4JI9-54" style="edgeStyle=orthogonalEdgeStyle;rounded=0;orthogonalLoop=1;jettySize=auto;html=1;endArrow=block;endFill=0;" parent="WIyWlLk6GJQsqaUBKTNV-1" source="LFCNQOA-7yHvIdZD4JI9-43" target="LFCNQOA-7yHvIdZD4JI9-37" edge="1">
          <mxGeometry relative="1" as="geometry">
            <mxPoint x="-321" y="905" as="targetPoint" />
            <Array as="points">
              <mxPoint x="-355" y="800" />
              <mxPoint x="-355" y="800" />
            </Array>
          </mxGeometry>
        </mxCell>
        <mxCell id="LFCNQOA-7yHvIdZD4JI9-55" style="edgeStyle=orthogonalEdgeStyle;rounded=0;orthogonalLoop=1;jettySize=auto;html=1;startArrow=diamond;startFill=0;endArrow=open;endFill=0;" parent="WIyWlLk6GJQsqaUBKTNV-1" target="LFCNQOA-7yHvIdZD4JI9-37" edge="1" source="LFCNQOA-7yHvIdZD4JI9-47">
          <mxGeometry relative="1" as="geometry">
            <mxPoint x="-420" y="1130" as="sourcePoint" />
            <mxPoint x="-435" y="930" as="targetPoint" />
            <Array as="points" />
          </mxGeometry>
        </mxCell>
        <mxCell id="LFCNQOA-7yHvIdZD4JI9-59" value="&lt;p style=&quot;margin:0px;margin-top:4px;text-align:center;&quot;&gt;&lt;i&gt;&amp;lt;&amp;lt;Interface&amp;gt;&amp;gt;&lt;/i&gt;&lt;br&gt;&lt;b&gt;ZigbeeSender&lt;/b&gt;&lt;/p&gt;&lt;hr size=&quot;1&quot; style=&quot;border-style:solid;&quot;&gt;&lt;p style=&quot;margin:0px;margin-left:4px;&quot;&gt;&lt;/p&gt;&lt;p style=&quot;margin:0px;margin-left:4px;&quot;&gt;+sendLocation(cattleId: String, location: String): void&lt;/p&gt;" style="verticalAlign=top;align=left;overflow=fill;html=1;whiteSpace=wrap;" parent="WIyWlLk6GJQsqaUBKTNV-1" vertex="1">
          <mxGeometry x="377.5" y="849" width="190" height="85" as="geometry" />
        </mxCell>
        <mxCell id="LFCNQOA-7yHvIdZD4JI9-60" value="&lt;p style=&quot;margin:0px;margin-top:4px;text-align:center;&quot;&gt;BluetoothToZigbeeAdapter&lt;/p&gt;&lt;hr size=&quot;1&quot; style=&quot;border-style:solid;&quot;&gt;&lt;p style=&quot;margin:0px;margin-left:4px;&quot;&gt;-bluetoothDevice: BluetoothDevice&lt;/p&gt;&lt;hr size=&quot;1&quot; style=&quot;border-style:solid;&quot;&gt;&lt;p style=&quot;margin:0px;margin-left:4px;&quot;&gt;+sendLocation(cattleId: String, location: String): void&lt;/p&gt;" style="verticalAlign=top;align=left;overflow=fill;html=1;whiteSpace=wrap;" parent="WIyWlLk6GJQsqaUBKTNV-1" vertex="1">
          <mxGeometry x="360" y="1040" width="225" height="110" as="geometry" />
        </mxCell>
        <mxCell id="LFCNQOA-7yHvIdZD4JI9-61" value="BluetoothDevice" style="swimlane;fontStyle=0;childLayout=stackLayout;horizontal=1;startSize=26;fillColor=none;horizontalStack=0;resizeParent=1;resizeParentMax=0;resizeLast=0;collapsible=1;marginBottom=0;whiteSpace=wrap;html=1;" parent="WIyWlLk6GJQsqaUBKTNV-1" vertex="1">
          <mxGeometry x="360" y="1240" width="180" height="70" as="geometry" />
        </mxCell>
        <mxCell id="LFCNQOA-7yHvIdZD4JI9-62" value="+transmitData(id: String, gpsCoordinates: String): void" style="text;strokeColor=none;fillColor=none;align=left;verticalAlign=top;spacingLeft=4;spacingRight=4;overflow=hidden;rotatable=0;points=[[0,0.5],[1,0.5]];portConstraint=eastwest;whiteSpace=wrap;html=1;" parent="LFCNQOA-7yHvIdZD4JI9-61" vertex="1">
          <mxGeometry y="26" width="180" height="44" as="geometry" />
        </mxCell>
        <mxCell id="LFCNQOA-7yHvIdZD4JI9-65" style="edgeStyle=orthogonalEdgeStyle;rounded=0;orthogonalLoop=1;jettySize=auto;html=1;dashed=1;endArrow=block;endFill=0;" parent="WIyWlLk6GJQsqaUBKTNV-1" source="LFCNQOA-7yHvIdZD4JI9-60" target="LFCNQOA-7yHvIdZD4JI9-59" edge="1">
          <mxGeometry relative="1" as="geometry" />
        </mxCell>
        <mxCell id="LFCNQOA-7yHvIdZD4JI9-66" style="edgeStyle=orthogonalEdgeStyle;rounded=0;orthogonalLoop=1;jettySize=auto;html=1;" parent="WIyWlLk6GJQsqaUBKTNV-1" source="LFCNQOA-7yHvIdZD4JI9-60" target="LFCNQOA-7yHvIdZD4JI9-61" edge="1">
          <mxGeometry relative="1" as="geometry">
            <Array as="points">
              <mxPoint x="473" y="1220" />
              <mxPoint x="473" y="1220" />
            </Array>
          </mxGeometry>
        </mxCell>
        <mxCell id="LFCNQOA-7yHvIdZD4JI9-67" value="Cattle" style="swimlane;fontStyle=1;align=center;verticalAlign=top;childLayout=stackLayout;horizontal=1;startSize=26;horizontalStack=0;resizeParent=1;resizeParentMax=0;resizeLast=0;collapsible=1;marginBottom=0;whiteSpace=wrap;html=1;" parent="WIyWlLk6GJQsqaUBKTNV-1" vertex="1">
          <mxGeometry x="-81" y="452" width="160" height="160" as="geometry" />
        </mxCell>
        <mxCell id="LFCNQOA-7yHvIdZD4JI9-68" value="-id: String&lt;div&gt;-distanceToFarm:Integer&lt;/div&gt;&lt;div&gt;-hasVaccinated:boolean&lt;/div&gt;" style="text;strokeColor=none;fillColor=none;align=left;verticalAlign=top;spacingLeft=4;spacingRight=4;overflow=hidden;rotatable=0;points=[[0,0.5],[1,0.5]];portConstraint=eastwest;whiteSpace=wrap;html=1;" parent="LFCNQOA-7yHvIdZD4JI9-67" vertex="1">
          <mxGeometry y="26" width="160" height="54" as="geometry" />
        </mxCell>
        <mxCell id="LFCNQOA-7yHvIdZD4JI9-69" value="" style="line;strokeWidth=1;fillColor=none;align=left;verticalAlign=middle;spacingTop=-1;spacingLeft=3;spacingRight=3;rotatable=0;labelPosition=right;points=[];portConstraint=eastwest;strokeColor=inherit;" parent="LFCNQOA-7yHvIdZD4JI9-67" vertex="1">
          <mxGeometry y="80" width="160" height="8" as="geometry" />
        </mxCell>
        <mxCell id="LFCNQOA-7yHvIdZD4JI9-70" value="+getId(): String&lt;div&gt;+hasVaccinated():boolean&lt;/div&gt;&lt;div&gt;+getDistanceToFarm:Integer&lt;br&gt;&lt;div&gt;+feed(): void&lt;/div&gt;&lt;/div&gt;" style="text;strokeColor=none;fillColor=none;align=left;verticalAlign=top;spacingLeft=4;spacingRight=4;overflow=hidden;rotatable=0;points=[[0,0.5],[1,0.5]];portConstraint=eastwest;whiteSpace=wrap;html=1;" parent="LFCNQOA-7yHvIdZD4JI9-67" vertex="1">
          <mxGeometry y="88" width="160" height="72" as="geometry" />
        </mxCell>
        <mxCell id="LFCNQOA-7yHvIdZD4JI9-77" style="edgeStyle=orthogonalEdgeStyle;rounded=0;orthogonalLoop=1;jettySize=auto;html=1;entryX=0;entryY=0.5;entryDx=0;entryDy=0;endArrow=block;endFill=0;" parent="WIyWlLk6GJQsqaUBKTNV-1" source="LFCNQOA-7yHvIdZD4JI9-71" target="LFCNQOA-7yHvIdZD4JI9-70" edge="1">
          <mxGeometry relative="1" as="geometry">
            <Array as="points">
              <mxPoint x="-151" y="560" />
              <mxPoint x="-81" y="560" />
            </Array>
          </mxGeometry>
        </mxCell>
        <mxCell id="LFCNQOA-7yHvIdZD4JI9-71" value="DairyCattle" style="swimlane;fontStyle=0;childLayout=stackLayout;horizontal=1;startSize=26;fillColor=none;horizontalStack=0;resizeParent=1;resizeParentMax=0;resizeLast=0;collapsible=1;marginBottom=0;whiteSpace=wrap;html=1;" parent="WIyWlLk6GJQsqaUBKTNV-1" vertex="1">
          <mxGeometry x="-221" y="642" width="140" height="52" as="geometry" />
        </mxCell>
        <mxCell id="LFCNQOA-7yHvIdZD4JI9-72" value="+feed(): void" style="text;strokeColor=none;fillColor=none;align=left;verticalAlign=top;spacingLeft=4;spacingRight=4;overflow=hidden;rotatable=0;points=[[0,0.5],[1,0.5]];portConstraint=eastwest;whiteSpace=wrap;html=1;" parent="LFCNQOA-7yHvIdZD4JI9-71" vertex="1">
          <mxGeometry y="26" width="140" height="26" as="geometry" />
        </mxCell>
        <mxCell id="LFCNQOA-7yHvIdZD4JI9-75" value="BeefCattle" style="swimlane;fontStyle=0;childLayout=stackLayout;horizontal=1;startSize=26;fillColor=none;horizontalStack=0;resizeParent=1;resizeParentMax=0;resizeLast=0;collapsible=1;marginBottom=0;whiteSpace=wrap;html=1;" parent="WIyWlLk6GJQsqaUBKTNV-1" vertex="1">
          <mxGeometry x="79" y="642" width="140" height="52" as="geometry" />
        </mxCell>
        <mxCell id="LFCNQOA-7yHvIdZD4JI9-76" value="+feed(): void" style="text;strokeColor=none;fillColor=none;align=left;verticalAlign=top;spacingLeft=4;spacingRight=4;overflow=hidden;rotatable=0;points=[[0,0.5],[1,0.5]];portConstraint=eastwest;whiteSpace=wrap;html=1;" parent="LFCNQOA-7yHvIdZD4JI9-75" vertex="1">
          <mxGeometry y="26" width="140" height="26" as="geometry" />
        </mxCell>
        <mxCell id="LFCNQOA-7yHvIdZD4JI9-78" style="edgeStyle=orthogonalEdgeStyle;rounded=0;orthogonalLoop=1;jettySize=auto;html=1;entryX=0.982;entryY=0.299;entryDx=0;entryDy=0;entryPerimeter=0;endArrow=block;endFill=0;" parent="WIyWlLk6GJQsqaUBKTNV-1" source="LFCNQOA-7yHvIdZD4JI9-75" target="LFCNQOA-7yHvIdZD4JI9-70" edge="1">
          <mxGeometry relative="1" as="geometry" />
        </mxCell>
        <mxCell id="LFCNQOA-7yHvIdZD4JI9-79" value="CattleFactory" style="swimlane;fontStyle=0;childLayout=stackLayout;horizontal=1;startSize=26;fillColor=none;horizontalStack=0;resizeParent=1;resizeParentMax=0;resizeLast=0;collapsible=1;marginBottom=0;whiteSpace=wrap;html=1;" parent="WIyWlLk6GJQsqaUBKTNV-1" vertex="1">
          <mxGeometry x="-97" y="752" width="190" height="52" as="geometry" />
        </mxCell>
        <mxCell id="LFCNQOA-7yHvIdZD4JI9-80" value="+createCattle(id: String): Cattle" style="text;strokeColor=none;fillColor=none;align=left;verticalAlign=top;spacingLeft=4;spacingRight=4;overflow=hidden;rotatable=0;points=[[0,0.5],[1,0.5]];portConstraint=eastwest;whiteSpace=wrap;html=1;" parent="LFCNQOA-7yHvIdZD4JI9-79" vertex="1">
          <mxGeometry y="26" width="190" height="26" as="geometry" />
        </mxCell>
        <mxCell id="LFCNQOA-7yHvIdZD4JI9-83" value="BeefCattleFactory" style="swimlane;fontStyle=0;childLayout=stackLayout;horizontal=1;startSize=26;fillColor=none;horizontalStack=0;resizeParent=1;resizeParentMax=0;resizeLast=0;collapsible=1;marginBottom=0;whiteSpace=wrap;html=1;" parent="WIyWlLk6GJQsqaUBKTNV-1" vertex="1">
          <mxGeometry x="19" y="934" width="190" height="52" as="geometry" />
        </mxCell>
        <mxCell id="LFCNQOA-7yHvIdZD4JI9-84" value="+createCattle(id: String): Cattle" style="text;strokeColor=none;fillColor=none;align=left;verticalAlign=top;spacingLeft=4;spacingRight=4;overflow=hidden;rotatable=0;points=[[0,0.5],[1,0.5]];portConstraint=eastwest;whiteSpace=wrap;html=1;" parent="LFCNQOA-7yHvIdZD4JI9-83" vertex="1">
          <mxGeometry y="26" width="190" height="26" as="geometry" />
        </mxCell>
        <mxCell id="LFCNQOA-7yHvIdZD4JI9-85" value="DairyCattleFactory" style="swimlane;fontStyle=0;childLayout=stackLayout;horizontal=1;startSize=26;fillColor=none;horizontalStack=0;resizeParent=1;resizeParentMax=0;resizeLast=0;collapsible=1;marginBottom=0;whiteSpace=wrap;html=1;" parent="WIyWlLk6GJQsqaUBKTNV-1" vertex="1">
          <mxGeometry x="-211" y="934" width="190" height="52" as="geometry" />
        </mxCell>
        <mxCell id="LFCNQOA-7yHvIdZD4JI9-86" value="+createCattle(id: String): Cattle" style="text;strokeColor=none;fillColor=none;align=left;verticalAlign=top;spacingLeft=4;spacingRight=4;overflow=hidden;rotatable=0;points=[[0,0.5],[1,0.5]];portConstraint=eastwest;whiteSpace=wrap;html=1;" parent="LFCNQOA-7yHvIdZD4JI9-85" vertex="1">
          <mxGeometry y="26" width="190" height="26" as="geometry" />
        </mxCell>
        <mxCell id="LFCNQOA-7yHvIdZD4JI9-87" style="edgeStyle=orthogonalEdgeStyle;rounded=0;orthogonalLoop=1;jettySize=auto;html=1;endArrow=block;endFill=0;exitX=0.679;exitY=-0.019;exitDx=0;exitDy=0;exitPerimeter=0;" parent="WIyWlLk6GJQsqaUBKTNV-1" source="LFCNQOA-7yHvIdZD4JI9-85" target="LFCNQOA-7yHvIdZD4JI9-80" edge="1">
          <mxGeometry relative="1" as="geometry">
            <mxPoint x="-76" y="802" as="sourcePoint" />
            <mxPoint x="-41" y="852" as="targetPoint" />
            <Array as="points">
              <mxPoint x="-82" y="842" />
              <mxPoint x="-41" y="842" />
            </Array>
          </mxGeometry>
        </mxCell>
        <mxCell id="LFCNQOA-7yHvIdZD4JI9-88" style="edgeStyle=orthogonalEdgeStyle;rounded=0;orthogonalLoop=1;jettySize=auto;html=1;endArrow=block;endFill=0;entryX=0.721;entryY=1.077;entryDx=0;entryDy=0;entryPerimeter=0;exitX=0.311;exitY=0;exitDx=0;exitDy=0;exitPerimeter=0;" parent="WIyWlLk6GJQsqaUBKTNV-1" source="LFCNQOA-7yHvIdZD4JI9-83" edge="1" target="LFCNQOA-7yHvIdZD4JI9-80">
          <mxGeometry relative="1" as="geometry">
            <mxPoint x="209" y="872" as="targetPoint" />
            <mxPoint x="79" y="912" as="sourcePoint" />
            <Array as="points">
              <mxPoint x="78" y="842" />
              <mxPoint x="40" y="842" />
            </Array>
          </mxGeometry>
        </mxCell>
        <mxCell id="LFCNQOA-7yHvIdZD4JI9-90" style="edgeStyle=orthogonalEdgeStyle;rounded=0;orthogonalLoop=1;jettySize=auto;html=1;endArrow=open;endFill=0;exitX=0.25;exitY=0;exitDx=0;exitDy=0;entryX=0.429;entryY=0.885;entryDx=0;entryDy=0;entryPerimeter=0;" parent="WIyWlLk6GJQsqaUBKTNV-1" source="LFCNQOA-7yHvIdZD4JI9-85" target="LFCNQOA-7yHvIdZD4JI9-72" edge="1">
          <mxGeometry relative="1" as="geometry">
            <mxPoint x="-161" y="722" as="targetPoint" />
            <Array as="points">
              <mxPoint x="-161" y="934" />
            </Array>
          </mxGeometry>
        </mxCell>
        <mxCell id="LFCNQOA-7yHvIdZD4JI9-93" style="edgeStyle=orthogonalEdgeStyle;rounded=0;orthogonalLoop=1;jettySize=auto;html=1;endArrow=open;endFill=0;exitX=0.75;exitY=0;exitDx=0;exitDy=0;entryX=0.571;entryY=1.038;entryDx=0;entryDy=0;entryPerimeter=0;" parent="WIyWlLk6GJQsqaUBKTNV-1" source="LFCNQOA-7yHvIdZD4JI9-83" target="LFCNQOA-7yHvIdZD4JI9-76" edge="1">
          <mxGeometry relative="1" as="geometry">
            <mxPoint x="159" y="712" as="targetPoint" />
            <Array as="points">
              <mxPoint x="159" y="934" />
            </Array>
          </mxGeometry>
        </mxCell>
        <mxCell id="LFCNQOA-7yHvIdZD4JI9-94" style="edgeStyle=orthogonalEdgeStyle;rounded=0;orthogonalLoop=1;jettySize=auto;html=1;endArrow=open;endFill=0;" parent="WIyWlLk6GJQsqaUBKTNV-1" source="LFCNQOA-7yHvIdZD4JI9-67" target="LFCNQOA-7yHvIdZD4JI9-43" edge="1">
          <mxGeometry relative="1" as="geometry">
            <mxPoint x="-81" y="440" as="sourcePoint" />
            <mxPoint x="-350" y="480" as="targetPoint" />
            <Array as="points">
              <mxPoint x="-360" y="520" />
            </Array>
          </mxGeometry>
        </mxCell>
        <mxCell id="LFCNQOA-7yHvIdZD4JI9-95" style="edgeStyle=orthogonalEdgeStyle;rounded=0;orthogonalLoop=1;jettySize=auto;html=1;endArrow=open;endFill=0;" parent="WIyWlLk6GJQsqaUBKTNV-1" source="LFCNQOA-7yHvIdZD4JI9-67" target="LFCNQOA-7yHvIdZD4JI9-38" edge="1">
          <mxGeometry relative="1" as="geometry">
            <Array as="points">
              <mxPoint x="-510" y="487" />
            </Array>
            <mxPoint x="60" y="525" as="sourcePoint" />
          </mxGeometry>
        </mxCell>
        <mxCell id="yxeFgjaQgra7EqybYUUQ-5" value="Main" style="swimlane;fontStyle=0;childLayout=stackLayout;horizontal=1;startSize=26;fillColor=none;horizontalStack=0;resizeParent=1;resizeParentMax=0;resizeLast=0;collapsible=1;marginBottom=0;whiteSpace=wrap;html=1;" vertex="1" parent="WIyWlLk6GJQsqaUBKTNV-1">
          <mxGeometry x="-96" y="1140" width="190" height="70" as="geometry" />
        </mxCell>
        <mxCell id="yxeFgjaQgra7EqybYUUQ-6" value="Client that orchestrates System" style="text;strokeColor=none;fillColor=none;align=left;verticalAlign=top;spacingLeft=4;spacingRight=4;overflow=hidden;rotatable=0;points=[[0,0.5],[1,0.5]];portConstraint=eastwest;whiteSpace=wrap;html=1;" vertex="1" parent="yxeFgjaQgra7EqybYUUQ-5">
          <mxGeometry y="26" width="190" height="44" as="geometry" />
        </mxCell>
        <mxCell id="yxeFgjaQgra7EqybYUUQ-7" value="" style="endArrow=none;html=1;rounded=0;" edge="1" parent="WIyWlLk6GJQsqaUBKTNV-1" target="LFCNQOA-7yHvIdZD4JI9-47">
          <mxGeometry width="50" height="50" relative="1" as="geometry">
            <mxPoint x="-100" y="1170" as="sourcePoint" />
            <mxPoint x="-160" y="1120" as="targetPoint" />
            <Array as="points">
              <mxPoint x="-425" y="1170" />
            </Array>
          </mxGeometry>
        </mxCell>
        <mxCell id="yxeFgjaQgra7EqybYUUQ-8" value="Schedules" style="edgeLabel;html=1;align=center;verticalAlign=middle;resizable=0;points=[];" vertex="1" connectable="0" parent="yxeFgjaQgra7EqybYUUQ-7">
          <mxGeometry x="-0.2731" y="-3" relative="1" as="geometry">
            <mxPoint x="-1" y="-7" as="offset" />
          </mxGeometry>
        </mxCell>
        <mxCell id="yxeFgjaQgra7EqybYUUQ-10" value="" style="endArrow=none;html=1;rounded=0;" edge="1" parent="WIyWlLk6GJQsqaUBKTNV-1" source="yxeFgjaQgra7EqybYUUQ-5" target="LFCNQOA-7yHvIdZD4JI9-85">
          <mxGeometry width="50" height="50" relative="1" as="geometry">
            <mxPoint x="-80" y="1120" as="sourcePoint" />
            <mxPoint x="-80" y="1050" as="targetPoint" />
          </mxGeometry>
        </mxCell>
        <mxCell id="yxeFgjaQgra7EqybYUUQ-14" value="Creates" style="edgeLabel;html=1;align=center;verticalAlign=middle;resizable=0;points=[];" vertex="1" connectable="0" parent="yxeFgjaQgra7EqybYUUQ-10">
          <mxGeometry x="0.0005" relative="1" as="geometry">
            <mxPoint x="21" y="7" as="offset" />
          </mxGeometry>
        </mxCell>
        <mxCell id="yxeFgjaQgra7EqybYUUQ-11" value="" style="endArrow=none;html=1;rounded=0;" edge="1" parent="WIyWlLk6GJQsqaUBKTNV-1" source="yxeFgjaQgra7EqybYUUQ-5" target="LFCNQOA-7yHvIdZD4JI9-83">
          <mxGeometry width="50" height="50" relative="1" as="geometry">
            <mxPoint x="70" y="1110" as="sourcePoint" />
            <mxPoint x="120" y="1060" as="targetPoint" />
          </mxGeometry>
        </mxCell>
        <mxCell id="yxeFgjaQgra7EqybYUUQ-15" value="Creates" style="edgeLabel;html=1;align=center;verticalAlign=middle;resizable=0;points=[];" vertex="1" connectable="0" parent="yxeFgjaQgra7EqybYUUQ-11">
          <mxGeometry x="0.0625" y="-2" relative="1" as="geometry">
            <mxPoint x="-33" y="11" as="offset" />
          </mxGeometry>
        </mxCell>
        <mxCell id="yxeFgjaQgra7EqybYUUQ-16" value="" style="endArrow=none;html=1;rounded=0;" edge="1" parent="WIyWlLk6GJQsqaUBKTNV-1" source="LFCNQOA-7yHvIdZD4JI9-0" target="yxeFgjaQgra7EqybYUUQ-5">
          <mxGeometry width="50" height="50" relative="1" as="geometry">
            <mxPoint x="-200" y="1320" as="sourcePoint" />
            <mxPoint x="-150" y="1270" as="targetPoint" />
          </mxGeometry>
        </mxCell>
        <mxCell id="yxeFgjaQgra7EqybYUUQ-17" value="Uses" style="edgeLabel;html=1;align=center;verticalAlign=middle;resizable=0;points=[];" vertex="1" connectable="0" parent="yxeFgjaQgra7EqybYUUQ-16">
          <mxGeometry x="0.0013" y="-3" relative="1" as="geometry">
            <mxPoint x="-14" y="-9" as="offset" />
          </mxGeometry>
        </mxCell>
        <mxCell id="yxeFgjaQgra7EqybYUUQ-18" value="" style="endArrow=none;html=1;rounded=0;" edge="1" parent="WIyWlLk6GJQsqaUBKTNV-1" source="LFCNQOA-7yHvIdZD4JI9-26" target="yxeFgjaQgra7EqybYUUQ-5">
          <mxGeometry width="50" height="50" relative="1" as="geometry">
            <mxPoint x="-110" y="1360" as="sourcePoint" />
            <mxPoint x="-60" y="1310" as="targetPoint" />
          </mxGeometry>
        </mxCell>
        <mxCell id="yxeFgjaQgra7EqybYUUQ-19" value="Notifies" style="edgeLabel;html=1;align=center;verticalAlign=middle;resizable=0;points=[];" vertex="1" connectable="0" parent="yxeFgjaQgra7EqybYUUQ-18">
          <mxGeometry x="0.251" y="-3" relative="1" as="geometry">
            <mxPoint x="24" y="24" as="offset" />
          </mxGeometry>
        </mxCell>
        <mxCell id="yxeFgjaQgra7EqybYUUQ-20" value="" style="endArrow=none;dashed=1;html=1;dashPattern=1 3;strokeWidth=2;rounded=0;" edge="1" parent="WIyWlLk6GJQsqaUBKTNV-1" source="LFCNQOA-7yHvIdZD4JI9-26" target="LFCNQOA-7yHvIdZD4JI9-0">
          <mxGeometry width="50" height="50" relative="1" as="geometry">
            <mxPoint x="-530" y="1560" as="sourcePoint" />
            <mxPoint x="-480" y="1510" as="targetPoint" />
          </mxGeometry>
        </mxCell>
        <mxCell id="yxeFgjaQgra7EqybYUUQ-21" value="Gets data from" style="edgeLabel;html=1;align=center;verticalAlign=middle;resizable=0;points=[];rotation=40;" vertex="1" connectable="0" parent="yxeFgjaQgra7EqybYUUQ-20">
          <mxGeometry x="0.1921" y="4" relative="1" as="geometry">
            <mxPoint x="10" y="16" as="offset" />
          </mxGeometry>
        </mxCell>
        <mxCell id="yxeFgjaQgra7EqybYUUQ-22" value="" style="endArrow=none;html=1;rounded=0;" edge="1" parent="WIyWlLk6GJQsqaUBKTNV-1" source="yxeFgjaQgra7EqybYUUQ-5" target="LFCNQOA-7yHvIdZD4JI9-60">
          <mxGeometry width="50" height="50" relative="1" as="geometry">
            <mxPoint x="190" y="1290" as="sourcePoint" />
            <mxPoint x="240" y="1240" as="targetPoint" />
          </mxGeometry>
        </mxCell>
        <mxCell id="yxeFgjaQgra7EqybYUUQ-23" value="Adapts" style="edgeLabel;html=1;align=center;verticalAlign=middle;resizable=0;points=[];" vertex="1" connectable="0" parent="yxeFgjaQgra7EqybYUUQ-22">
          <mxGeometry x="-0.1091" y="3" relative="1" as="geometry">
            <mxPoint x="7" y="-16" as="offset" />
          </mxGeometry>
        </mxCell>
      </root>
    </mxGraphModel>
  </diagram>
</mxfile>
